<?xml version="1.0" encoding="utf-8"?>
<!-- Generator: Adobe Illustrator 18.0.0, SVG Export Plug-In . SVG Version: 6.00 Build 0)  -->
<!DOCTYPE svg PUBLIC "-//W3C//DTD SVG 1.1//EN" "http://www.w3.org/Graphics/SVG/1.1/DTD/svg11.dtd">
<svg version="1.1" id="Capa_1" xmlns:sketch="http://www.bohemiancoding.com/sketch/ns"
	 xmlns="http://www.w3.org/2000/svg" xmlns:xlink="http://www.w3.org/1999/xlink" x="0px" y="0px" viewBox="0 0 32 32"
	 enable-background="new 0 0 32 32" xml:space="preserve">
<title>icon 72 documents</title>
<desc>Created with Sketch.</desc>
<g>
	<path d="M23,8h5l-6-7v6C22,7.6,22.5,8,23,8z"/>
	<path d="M21,7V1H11C9.9,1,9,1.9,9,3C7.9,3,7,3.9,7,5C5.9,5,5,5.9,5,7v23c0,1.1,0.9,2,2,2h15c1.1,0,2-0.9,2-2c1.1,0,2-0.9,2-2
		c1.1,0,2-0.9,2-2V9h-5C21.9,9,21,8.1,21,7z M22,31H7c-0.5,0-1-0.4-1-1V7c0-0.5,0.4-1,1-1l0,22c0,1.1,0.9,2,2,2l14,0
		C23,30.5,22.6,31,22,31z M24,29H9c-0.5,0-1-0.4-1-1V5c0-0.5,0.4-1,1-1v22c0,1.1,0.9,2,2,2l14,0C25,28.5,24.6,29,24,29z"/>
</g>
</svg>
