<?xml version="1.0" encoding="utf-8"?>
<!-- Generator: Adobe Illustrator 20.1.0, SVG Export Plug-In . SVG Version: 6.00 Build 0)  -->
<svg version="1.1" id="Layer_1" xmlns="http://www.w3.org/2000/svg" xmlns:xlink="http://www.w3.org/1999/xlink" x="0px" y="0px"
	 viewBox="0 0 100 100" style="enable-background:new 0 0 100 100;" xml:space="preserve">
<style type="text/css">
	.st0{fill:none;}
	.st1{fill:#181616;}
</style>
<g>
	<circle class="st0" cx="50" cy="50" r="50"/>
	<g>
		<path class="st1" d="M53.3,47.4c-1.5,0-2.1,1.8-2.1,3.2c0,1.3,0.5,3.2,2.1,3.2c1.8,0,2.1-1.7,2.1-3.2
			C55.4,49.1,55.2,47.4,53.3,47.4z"/>
		<path class="st1" d="M83,31.9H17c-1.1,0-2,0.9-2,2v32.2c0,1.1,0.9,2,2,2h66c1.1,0,2-0.9,2-2V33.9C85,32.8,84.1,31.9,83,31.9z
			 M31.4,55.4h-2.9v-5.8c0-1-0.3-2.2-1.7-2.2c-0.9,0-1.7,0.8-1.7,2.2v5.8h-2.9V41.6H25V47l0,0c0.6-0.9,1.5-1.4,2.9-1.4
			c1,0,2.8,0.7,3.1,2.1c0.2,0.6,0.2,1.2,0.2,1.5v6.2H31.4z M39.6,47.7h-2.2v4.4c0,1.3,0.2,1.6,1.2,1.6c0.3,0,0.6,0,0.9-0.1v1.7
			c-0.3,0.2-1.8,0.3-2.2,0.3c-2.2,0-2.7-1.2-2.7-3.2v-4.7h-1.9v-1.9h1.9v-1.9l2.9-1v2.9h2.2v1.9H39.6z M47,47.7h-2.2v4.4
			c0,1.3,0.2,1.6,1.2,1.6c0.3,0,0.6,0,0.9-0.1v1.7c-0.3,0.2-1.8,0.3-2.2,0.3c-2.2,0-2.7-1.2-2.7-3.2v-4.7h-1.9v-1.9H42v-1.9l2.9-1
			v2.9H47V47.7z M54.2,55.7c-1.2,0-2.3-0.5-2.9-1.6l0,0v5h-2.9V47.7c0-0.6-0.1-1.3-0.1-1.9h2.9l0.1,1.1l0,0c0.5-0.8,1.6-1.4,2.6-1.4
			c3,0,4.5,2.5,4.5,5.1C58.3,53.1,57,55.7,54.2,55.7z M63,55.4h-2.4v-2.5H63V55.4z M63,48.3h-2.4v-2.5H63V48.3z M65.2,57.2l4.7-15.6
			h2.2l-4.6,15.6C67.5,57.2,65.2,57.2,65.2,57.2z M74.3,57.2H72l4.7-15.6h2.2L74.3,57.2z"/>
	</g>
</g>
</svg>
