<svg id="Layer_1" data-name="Layer 1" xmlns="http://www.w3.org/2000/svg" viewBox="0 0 70 70"><defs><style>.cls-1{fill:none;}</style></defs><title>Kafka-01</title><circle class="cls-1" cx="35" cy="35" r="35"/><path d="M43.33,37.53a6.09,6.09,0,0,0-4.58,2.08l-2.87-2a7.75,7.75,0,0,0,0-5.32l2.87-2a6.1,6.1,0,1,0-1.28-2.3l-2.87,2a7.89,7.89,0,0,0-4.89-2.84V23.65a6.12,6.12,0,1,0-2.62,0v3.5a7.88,7.88,0,0,0,.05,15.54v3.7a6.11,6.11,0,1,0,2.62,0v-3.7a7.89,7.89,0,0,0,4.8-2.79l2.89,2a6.11,6.11,0,1,0,5.86-4.39h0Zm0-14.29a3,3,0,1,1-3,3,3,3,0,0,1,3-3h0ZM25.49,17.67a3,3,0,1,1,3,3,3,3,0,0,1-3-3h0Zm5.93,34.66a3,3,0,1,1-3-3,3,3,0,0,1,3,3h0ZM28.46,39a4.13,4.13,0,1,1,4.13-4.13A4.14,4.14,0,0,1,28.46,39h0ZM43.33,46.6a3,3,0,1,1,3-3,3,3,0,0,1-3,3h0Z"/></svg>